
<svg width="200px" height="200px" viewBox="0 0 200 200" version="1.1" xmlns="http://www.w3.org/2000/svg" xmlns:xlink="http://www.w3.org/1999/xlink">
    <!-- Generator: Sketch 44.1 (41455) - http://www.bohemiancoding.com/sketch -->
    <desc>Created with Sketch.</desc>
    <defs></defs>
    <g id="Page-1" stroke="none" stroke-width="1" fill="none" fill-rule="evenodd">
        <g id="Add-Photo">
            <circle id="Oval" fill="#BBBBBB" cx="100" cy="100" r="100"></circle>
            <path d="M53.664,144.536 L59.352,160.328 C59.4000002,160.440001 59.424,160.544 59.424,160.64 C59.424,160.912001 59.0800034,161.048 58.392,161.048 L58.2,161.048 C57.6399972,161.048 57.3200004,160.920001 57.24,160.664 L55.824,156.728 L48.768,156.728 L47.4,160.664 C47.3199996,160.920001 47.0000028,161.048 46.44,161.048 L46.32,161.048 C45.6319966,161.048 45.288,160.912001 45.288,160.64 C45.288,160.56 45.3119998,160.448001 45.36,160.304 L51.048,144.536 C51.1280004,144.279999 51.4479972,144.152 52.008,144.152 L52.704,144.152 C53.2640028,144.152 53.5839996,144.279999 53.664,144.536 Z M52.32,146.36 C52.1919994,147.000003 52.0720006,147.463999 51.96,147.752 L49.44,154.904 L55.176,154.904 L52.656,147.752 C52.5759996,147.495999 52.4800006,147.032003 52.368,146.36 L52.32,146.36 Z M71.28,143.48 L71.28,157.448 C71.28,158.504005 71.3279995,159.259998 71.424,159.716 C71.5200005,160.172002 71.568,160.424 71.568,160.472 C71.568,160.664001 71.4160015,160.804 71.112,160.892 C70.8079985,160.98 70.5280013,161.024 70.272,161.024 C70.0479989,161.024 69.8840005,160.900001 69.78,160.652 C69.6759995,160.403999 69.5960003,160.144001 69.54,159.872 C69.4839997,159.599999 69.4480001,159.424 69.432,159.344 C68.2799942,160.544006 67.008007,161.144 65.616,161.144 C64.6719953,161.144 63.8480035,160.872003 63.144,160.328 C62.4399965,159.783997 61.9000019,159.024005 61.524,158.048 C61.1479981,157.071995 60.96,155.968006 60.96,154.736 C60.96,153.375993 61.163998,152.212005 61.572,151.244 C61.980002,150.275995 62.5519963,149.544002 63.288,149.048 C64.0240037,148.551998 64.8719952,148.304 65.832,148.304 C66.5360035,148.304 67.1559973,148.407999 67.692,148.616 C68.2280027,148.824001 68.7519974,149.127998 69.264,149.528 L69.264,143.48 C69.264,143.127998 69.5839968,142.952 70.224,142.952 L70.32,142.952 C70.9600032,142.952 71.28,143.127998 71.28,143.48 Z M63.888,151.244 C63.3439973,152.004004 63.072,153.103993 63.072,154.544 C63.072,156.096008 63.3279974,157.291996 63.84,158.132 C64.3520026,158.972004 65.0799953,159.392 66.024,159.392 C66.5680027,159.392 67.1239972,159.248001 67.692,158.96 C68.2600028,158.671999 68.7839976,158.264003 69.264,157.736 L69.264,151.16 C68.3999957,150.439996 67.4160055,150.08 66.312,150.08 C65.2399946,150.096 64.4320027,150.483996 63.888,151.244 Z M84.84,143.48 L84.84,157.448 C84.84,158.504005 84.8879995,159.259998 84.984,159.716 C85.0800005,160.172002 85.128,160.424 85.128,160.472 C85.128,160.664001 84.9760015,160.804 84.672,160.892 C84.3679985,160.98 84.0880013,161.024 83.832,161.024 C83.6079989,161.024 83.4440005,160.900001 83.34,160.652 C83.2359995,160.403999 83.1560003,160.144001 83.1,159.872 C83.0439997,159.599999 83.0080001,159.424 82.992,159.344 C81.8399942,160.544006 80.568007,161.144 79.176,161.144 C78.2319953,161.144 77.4080035,160.872003 76.704,160.328 C75.9999965,159.783997 75.4600019,159.024005 75.084,158.048 C74.7079981,157.071995 74.52,155.968006 74.52,154.736 C74.52,153.375993 74.723998,152.212005 75.132,151.244 C75.540002,150.275995 76.1119963,149.544002 76.848,149.048 C77.5840037,148.551998 78.4319952,148.304 79.392,148.304 C80.0960035,148.304 80.7159973,148.407999 81.252,148.616 C81.7880027,148.824001 82.3119974,149.127998 82.824,149.528 L82.824,143.48 C82.824,143.127998 83.1439968,142.952 83.784,142.952 L83.88,142.952 C84.5200032,142.952 84.84,143.127998 84.84,143.48 Z M77.448,151.244 C76.9039973,152.004004 76.632,153.103993 76.632,154.544 C76.632,156.096008 76.8879974,157.291996 77.4,158.132 C77.9120026,158.972004 78.6399953,159.392 79.584,159.392 C80.1280027,159.392 80.6839972,159.248001 81.252,158.96 C81.8200028,158.671999 82.3439976,158.264003 82.824,157.736 L82.824,151.16 C81.9599957,150.439996 80.9760055,150.08 79.872,150.08 C78.7999946,150.096 77.9920027,150.483996 77.448,151.244 Z M103.956,145.208 C105.036005,145.880003 105.576,147.111991 105.576,148.904 C105.576,150.232007 105.264003,151.263996 104.64,152 C104.015997,152.736004 103.320004,153.227999 102.552,153.476 C101.783996,153.724001 101.088003,153.848 100.464,153.848 L96.744,153.848 L96.744,160.52 C96.744,160.872002 96.4240032,161.048 95.784,161.048 L95.592,161.048 C94.9519968,161.048 94.632,160.872002 94.632,160.52 L94.632,144.92 C94.632,144.663999 94.6879994,144.480001 94.8,144.368 C94.9120006,144.255999 95.0959987,144.2 95.352,144.2 L100.224,144.2 C101.632007,144.2 102.875995,144.535997 103.956,145.208 Z M96.744,146.024 L96.744,152.024 L100.488,152.024 C101.176003,152.024 101.831997,151.792002 102.456,151.328 C103.080003,150.863998 103.392,150.056006 103.392,148.904 C103.392,147.831995 103.072003,147.084002 102.432,146.66 C101.791997,146.235998 101.032004,146.024 100.152,146.024 L96.744,146.024 Z M110.496,143.48 L110.496,149.96 C110.976002,149.479998 111.531997,149.084002 112.164,148.772 C112.796003,148.459998 113.463996,148.304 114.168,148.304 C115.176005,148.304 116.063996,148.587997 116.832,149.156 C117.600004,149.724003 117.984,150.735993 117.984,152.192 L117.984,160.52 C117.984,160.872002 117.664003,161.048 117.024,161.048 L116.928,161.048 C116.287997,161.048 115.968,160.872002 115.968,160.52 L115.968,152.384 C115.968,151.663996 115.760002,151.096002 115.344,150.68 C114.927998,150.263998 114.320004,150.056 113.52,150.056 C112.991997,150.056 112.504002,150.179999 112.056,150.428 C111.607998,150.676001 111.236001,150.947999 110.94,151.244 C110.643999,151.540001 110.496,151.704 110.496,151.736 L110.496,160.52 C110.496,160.872002 110.176003,161.048 109.536,161.048 L109.44,161.048 C108.799997,161.048 108.48,160.872002 108.48,160.52 L108.48,143.48 C108.48,143.127998 108.799997,142.952 109.44,142.952 L109.536,142.952 C110.176003,142.952 110.496,143.127998 110.496,143.48 Z M130.764,149.972 C131.700005,151.084006 132.168,152.68799 132.168,154.784 C132.168,156.86401 131.708005,158.443995 130.788,159.524 C129.867995,160.604005 128.512009,161.144 126.72,161.144 C124.911991,161.144 123.532005,160.600005 122.58,159.512 C121.627995,158.423995 121.152,156.84801 121.152,154.784 C121.152,152.70399 121.631995,151.104006 122.592,149.984 C123.552005,148.863994 124.927991,148.304 126.72,148.304 C128.480009,148.304 129.827995,148.859994 130.764,149.972 Z M124.08,151.172 C123.535997,151.932004 123.264,153.119992 123.264,154.736 C123.264,156.336008 123.535997,157.515996 124.08,158.276 C124.624003,159.036004 125.479994,159.416 126.648,159.416 C127.816006,159.416 128.679997,159.036004 129.24,158.276 C129.800003,157.515996 130.08,156.336008 130.08,154.736 C130.08,153.135992 129.800003,151.952004 129.24,151.184 C128.679997,150.415996 127.816006,150.032 126.648,150.032 C125.479994,150.032 124.624003,150.411996 124.08,151.172 Z M138.072,145.928 L138.072,148.448 L140.088,148.448 C140.264001,148.448 140.388,148.503999 140.46,148.616 C140.532,148.728001 140.568,148.911999 140.568,149.168 L140.568,149.456 C140.568,149.712001 140.532,149.895999 140.46,150.008 C140.388,150.120001 140.264001,150.176 140.088,150.176 L138.072,150.176 L138.072,157.64 C138.072,158.312003 138.187999,158.775999 138.42,159.032 C138.652001,159.288001 138.967998,159.416 139.368,159.416 C139.672002,159.416 139.899999,159.396 140.052,159.356 C140.204001,159.316 140.32,159.296 140.4,159.296 C140.544001,159.296 140.664,159.443999 140.76,159.74 C140.856,160.036001 140.904,160.263999 140.904,160.424 C140.904,160.904002 140.320006,161.144 139.152,161.144 C138.351996,161.144 137.636003,160.900002 137.004,160.412 C136.371997,159.923998 136.056,159.064006 136.056,157.832 L136.056,150.176 L134.856,150.176 C134.695999,150.176 134.576,150.120001 134.496,150.008 C134.416,149.895999 134.376,149.712001 134.376,149.456 L134.376,149.168 C134.376,148.911999 134.416,148.728001 134.496,148.616 C134.576,148.503999 134.695999,148.448 134.856,148.448 L136.056,148.448 L136.344,145.928 C136.376,145.575998 136.631998,145.4 137.112,145.4 L137.352,145.4 C137.832002,145.4 138.072,145.575998 138.072,145.928 Z M152.628,149.972 C153.564005,151.084006 154.032,152.68799 154.032,154.784 C154.032,156.86401 153.572005,158.443995 152.652,159.524 C151.731995,160.604005 150.376009,161.144 148.584,161.144 C146.775991,161.144 145.396005,160.600005 144.444,159.512 C143.491995,158.423995 143.016,156.84801 143.016,154.784 C143.016,152.70399 143.495995,151.104006 144.456,149.984 C145.416005,148.863994 146.791991,148.304 148.584,148.304 C150.344009,148.304 151.691995,148.859994 152.628,149.972 Z M145.944,151.172 C145.399997,151.932004 145.128,153.119992 145.128,154.736 C145.128,156.336008 145.399997,157.515996 145.944,158.276 C146.488003,159.036004 147.343994,159.416 148.512,159.416 C149.680006,159.416 150.543997,159.036004 151.104,158.276 C151.664003,157.515996 151.944,156.336008 151.944,154.736 C151.944,153.135992 151.664003,151.952004 151.104,151.184 C150.543997,150.415996 149.680006,150.032 148.512,150.032 C147.343994,150.032 146.488003,150.411996 145.944,151.172 Z" fill="#FFFFFF"></path>
            <polygon id="+" fill="#FFFFFF" points="96.21 43.005 104.955 43.005 104.955 80.13 142.08 80.13 142.08 88.875 104.955 88.875 104.955 126 96.21 126 96.21 88.875 59.085 88.875 59.085 80.13 96.21 80.13"></polygon>
        </g>
    </g>
</svg>