
<svg width="200px" height="200px" viewBox="0 0 200 200" version="1.1" xmlns="http://www.w3.org/2000/svg" xmlns:xlink="http://www.w3.org/1999/xlink">
    <!-- Generator: Sketch 44.1 (41455) - http://www.bohemiancoding.com/sketch -->
    <desc>Created with Sketch.</desc>
    <defs></defs>
    <g id="Page-1" stroke="none" stroke-width="1" fill="none" fill-rule="evenodd">
        <g id="eat">
            <circle id="Oval" fill="#FF7809" cx="100" cy="100" r="100"></circle>
            <path d="M116.733444,114.950287 C114.249948,115.267494 112.377655,113.929036 111.851556,111.46875 C110.96183,107.298643 113.762533,102.764908 117.870746,101.720447 C120.663712,101.016403 122.93058,102.532806 123.433468,105.465033 C123.526309,106.014343 123.557256,106.571388 123.611414,107.120698 C123.541783,111.259858 120.76429,114.439662 116.733444,114.950287 M110.899936,130.145261 C110.38931,132.296077 109.313902,133.108436 107.093455,132.88407 C105.739524,132.744809 104.385593,132.489496 103.062609,132.164553 C99.2406555,131.228406 95.4805957,131.615244 91.7127992,132.489496 C90.5290766,132.768019 89.2834601,132.868597 88.0687906,132.88407 C86.6529656,132.891807 85.6781353,132.071712 85.3299816,130.733254 C85.0050382,129.464428 84.8735134,128.14918 84.6646212,126.849406 C84.9276707,121.959781 86.1810239,117.480204 89.4304583,113.735618 C91.7360094,111.074176 94.6140799,109.449459 98.2194047,109.526826 C101.716415,109.596457 104.462961,111.259858 106.683408,113.843932 C109.259745,116.838054 110.559519,120.389221 111.039197,124.265332 C111.279036,126.230467 111.356404,128.195601 110.899936,130.145261 M79.163793,116.211377 C76.1000405,114.594397 74.4598499,112.04127 74.5681643,108.505576 C74.6455318,106.161341 76.1387243,104.683622 78.4906959,104.583044 C82.7845913,104.397362 86.2738649,107.786058 86.2738649,112.621526 C86.2042342,114.045088 85.7322925,115.762646 83.7981054,116.582741 C82.2198087,117.255838 80.610565,116.977315 79.163793,116.211377 M84.9276707,97.0861347 C85.7709763,94.4865872 88.1693683,93.5040201 90.9236508,94.6258487 C95.287177,96.3898274 97.1362599,100.637302 95.5192795,104.977618 C94.8152353,106.888595 93.2756224,107.979477 91.1170695,107.964003 C89.5387728,107.902109 87.9991599,106.950489 86.7380698,105.557874 C84.5098862,103.097588 83.9141566,100.219518 84.9276707,97.0861347 M104.594486,92.1423524 C106.760775,91.3377305 108.811014,92.0572482 109.847738,94.1074865 C112.176499,98.7185887 109.901895,104.451519 104.192175,105.542401 C102.18062,105.921502 100.30059,104.80741 99.6042827,102.865486 C99.2793393,101.983497 99.1478145,101.039613 98.9311856,100.11894 C99.0704471,96.5909828 101.329578,93.3492852 104.594486,92.1423524 M175.555943,113.511252 C175.045318,109.294724 174.25617,105.132353 173.080184,101.04735 C171.053156,93.9914353 167.989403,87.384252 164.19066,81.1174857 C162.674257,78.6107791 160.515704,77.2026909 157.544793,77.3264789 C156.492595,77.3728994 155.448134,77.7365266 154.41141,77.9531555 C154.419146,77.9454188 154.419146,77.937682 154.426883,77.9222085 C135.858687,83.0361993 117.128018,85.5970631 98.6758729,85.5970631 C80.5873547,85.5970631 62.7696228,83.1445138 45.6249879,78.2239417 C45.408359,78.1620477 45.3077812,78.1465742 45.2304137,78.1078905 C45.222677,78.1078905 45.222677,78.1078905 45.2149402,78.1001537 C44.3793714,77.6514223 43.4819086,77.3883729 42.5689722,77.3187421 C39.8456367,77.0789029 37.0139868,78.4560442 35.5517413,81.1716429 C32.4879888,86.8581531 29.9271251,92.7535555 28.0393584,98.9352176 C25.9117526,105.898291 24.4881908,113.000627 24.1555106,120.280907 C23.9698287,124.211175 23.9775654,128.156917 24.0394594,132.102659 C24.0936166,135.947823 26.8092154,138.918734 30.39133,139.282361 C32.1939924,139.47578 33.9889181,139.707883 35.7838437,139.878091 C42.0196631,140.481557 48.2400089,141.154655 54.483565,141.626596 C61.191326,142.129485 67.9145606,142.562743 74.6300583,142.787109 C83.8832096,143.096578 93.1363609,143.23584 102.389512,143.328681 C107.240454,143.375101 112.091395,143.204893 116.9346,143.042421 C122.713951,142.841266 128.485565,142.57048 134.249443,142.26101 C138.674863,142.02117 143.092546,141.680754 147.51023,141.363547 C150.264512,141.162391 153.011058,140.953499 155.757604,140.674976 C160.12113,140.241718 164.476919,139.746566 168.832709,139.282361 C171.602465,138.988365 174.163329,136.984547 174.805479,134.268948 C175.300631,132.141343 175.617837,129.936369 175.764836,127.746869 C176.089779,123.004242 176.128463,118.253879 175.555943,113.511252 M154.620302,67.9572764 C153.289581,65.1333631 151.169712,63.013494 148.577901,61.3810401 C141.498776,56.9478831 133.754291,55.9807896 125.630705,57.1877224 C124.756452,57.3192471 123.8822,57.5126658 122.977,57.6751375 C122.66753,53.1336661 120.245928,49.9306522 116.810812,47.3465782 C114.296368,45.4588115 111.464718,44.2054582 108.46286,43.3312057 C104.594486,42.2093771 100.648744,41.8380132 96.6333713,42.0623789 C91.5271172,42.3486386 86.6993861,43.5710449 82.2971762,46.2324864 C79.2798442,48.0506223 76.7576642,50.3793836 75.3882597,53.7139222 C74.9317915,54.8125405 74.6996891,55.9962631 74.3592721,57.1799856 C73.562387,57.0716711 72.6958712,56.9246729 71.8216186,56.8550422 C67.6283009,56.4991517 63.4814036,56.7467277 59.4041371,57.845346 C54.9013495,59.0677523 50.793136,61.0174129 47.5823853,64.52216 C45.2458872,67.075287 43.9461135,70.0461985 44.1936894,73.5741558 C44.2014262,73.6437866 44.2014262,73.7134173 44.2168997,73.7753113 C79.5583672,84.4597611 117.994534,84.3823936 155.687973,73.5509456 C155.850445,71.6863892 155.494554,69.8218328 154.620302,67.9572764" id="Fill-1" fill="#FFFFFF"></path>
        </g>
    </g>
</svg>