
<svg width="200px" height="200px" viewBox="0 0 200 200" version="1.1" xmlns="http://www.w3.org/2000/svg" xmlns:xlink="http://www.w3.org/1999/xlink">
    <!-- Generator: Sketch 44.1 (41455) - http://www.bohemiancoding.com/sketch -->
    <desc>Created with Sketch.</desc>
    <defs></defs>
    <g id="Page-1" stroke="none" stroke-width="1" fill="none" fill-rule="evenodd">
        <g id="exercise">
            <circle id="Oval" fill="#008585" cx="100" cy="100" r="100"></circle>
            <path d="M81.71875,55 C80.5468691,54.2968715 79.9609375,53.2421945 79.9609375,51.8359375 C79.9609375,49.4921758 81.1328008,48.3203125 83.4765625,48.3203125 C84.6484434,48.3203125 85.585934,48.6718715 86.2890625,49.375 L107.382812,70.46875 C108.554693,71.1718785 109.140625,72.2265555 109.140625,73.6328125 C109.140625,75.9765742 107.968762,77.1484375 105.625,77.1484375 C104.921871,77.1484375 104.101567,76.9140648 103.164062,76.4453125 L81.71875,55 Z M105.625,128.476562 L96.484375,128.476562 C89.9218422,128.476562 85.1172027,128.359376 82.0703125,128.125 L90.859375,142.890625 C91.5625035,143.82813 91.9140625,145.117179 91.9140625,146.757812 C91.9140625,148.398446 91.2695377,149.863275 89.9804688,151.152344 C88.6913998,152.441413 87.2265707,153.085938 85.5859375,153.085938 C83.9453043,153.085938 82.3046957,152.265633 80.6640625,150.625 L67.3046875,127.773438 L54.296875,150.625 C52.6562418,152.265633 50.8984469,153.085938 49.0234375,153.085938 C47.3828043,153.085938 45.9179752,152.441413 44.6289062,151.152344 C43.3398373,149.863275 42.6953125,148.398446 42.6953125,146.757812 C42.6953125,145.585932 43.1640578,144.296882 44.1015625,142.890625 L55.3515625,123.203125 C52.3046723,120.859363 50.78125,114.296929 50.78125,103.515625 C50.78125,99.0624777 51.132809,95.0781426 51.8359375,91.5625 L31.796875,79.9609375 C30.390618,79.0234328 29.6875,77.7343832 29.6875,76.09375 C29.6875,73.0468598 31.3281086,71.5234375 34.609375,71.5234375 C34.8437512,71.5234375 35.1953102,71.5820307 35.6640625,71.6992188 C36.1328148,71.8164068 36.4843738,71.875 36.71875,71.875 L56.40625,83.4765625 L57.109375,83.125 L105.625,83.125 L105.625,128.476562 Z M137.265625,123.554688 L148.164062,142.890625 C149.101567,143.82813 149.570312,145.117179 149.570312,146.757812 C149.570312,148.398446 148.925788,149.863275 147.636719,151.152344 C146.34765,152.441413 144.882821,153.085938 143.242188,153.085938 C141.132802,153.085938 139.492193,152.265633 138.320312,150.625 L124.960938,127.773438 L111.953125,150.625 L111.601562,150.625 C110.429682,152.265633 108.789073,153.085938 106.679688,153.085938 C105.039054,153.085938 103.574225,152.441413 102.285156,151.152344 C100.996087,149.863275 100.351562,148.398446 100.351562,146.757812 C100.351562,145.585932 100.820308,144.296882 101.757812,142.890625 L112.65625,123.90625 L112.65625,83.125 L141.835938,112.304688 C141.132809,118.632844 139.609387,122.382807 137.265625,123.554688 Z M170.3125,84.8828125 C170.3125,85.8203172 169.843755,86.9921805 168.90625,88.3984375 L165.039062,92.265625 L147.109375,92.265625 L142.1875,97.1875 C142.421876,98.3593809 142.539062,100.234362 142.539062,102.8125 L117.578125,77.5 L132.34375,62.734375 L141.484375,46.9140625 L145.703125,54.6484375 C146.64063,54.6484375 147.460934,54.9999965 148.164062,55.703125 L148.164062,55.3515625 L157.304688,60.625 C159.882825,62.031257 161.171875,64.1406109 161.171875,66.953125 L161.171875,74.3359375 L168.203125,81.3671875 C169.609382,82.070316 170.3125,83.2421793 170.3125,84.8828125 Z" id="e" fill="#FFFFFF"></path>
        </g>
    </g>
</svg>