
<svg width="200px" height="200px" viewBox="0 0 200 200" version="1.1" xmlns="http://www.w3.org/2000/svg" xmlns:xlink="http://www.w3.org/1999/xlink">
    <!-- Generator: Sketch 44.1 (41455) - http://www.bohemiancoding.com/sketch -->
    <desc>Created with Sketch.</desc>
    <defs></defs>
    <g id="Page-1" stroke="none" stroke-width="1" fill="none" fill-rule="evenodd">
        <g id="immunization">
            <circle id="Oval" fill="#D8D8D8" cx="100" cy="100" r="100"></circle>
            <path d="M149.5625,58.65625 L136.90625,71.3125 L162.21875,96.90625 L153.78125,105.34375 L145.34375,96.90625 L81.78125,160.46875 L67.15625,145.84375 L41.28125,162.71875 L58.15625,136.84375 L43.53125,122.21875 L107.09375,58.65625 L98.65625,50.21875 L107.09375,41.78125 L132.6875,67.09375 L145.34375,54.4375 L136.90625,46 L145.34375,37.28125 L166.71875,58.65625 L158,67.09375 L149.5625,58.65625 Z M136.90625,88.46875 L115.53125,67.09375 L60.40625,122.21875 L81.78125,143.59375 L94.4375,130.65625 L81.78125,118 L86,113.78125 L98.65625,126.4375 L107.09375,118 L94.4375,105.34375 L98.65625,101.125 L111.3125,113.78125 L120.03125,105.34375 L107.09375,92.6875 L111.3125,88.46875 L124.25,101.125 L136.90625,88.46875 Z" id="m" fill="#FFFFFF"></path>
        </g>
    </g>
</svg>