
<svg width="89px" height="11px" viewBox="0 0 89 11" version="1.1" xmlns="http://www.w3.org/2000/svg" xmlns:xlink="http://www.w3.org/1999/xlink">
    <!-- Generator: Sketch 44.1 (41455) - http://www.bohemiancoding.com/sketch -->
    <desc>Created with Sketch.</desc>
    <defs></defs>
    <g id="Components" stroke="none" stroke-width="1" fill="none" fill-rule="evenodd">
        <g id="Signal" fill="#FFFFFF">
            <path d="M84.1444208,7.43850432 L82.0225391,9.5 L79.8601652,7.40531769 C80.3778594,6.83143413 81.1390073,6.46891192 81.987563,6.46891192 C82.8523616,6.46891192 83.626374,6.84544555 84.1444208,7.43850432 Z M86.3234964,5.32144245 L86.3234964,5.32144245 L85.2346215,6.37932931 C84.4356305,5.51823504 83.2768836,4.97668394 81.987563,4.97668394 C80.713648,4.97668394 79.567205,5.5053708 78.7692987,6.34859996 L77.6792698,5.29269359 C78.7566264,4.17975893 80.2882723,3.48445596 81.987563,3.48445596 C83.7014387,3.48445596 85.2447794,4.19174563 86.3234964,5.32144245 Z M88.5,3.20687933 L87.4118698,4.26404272 C86.0538809,2.86552609 84.1260026,1.99222798 81.987563,1.99222798 C79.8628921,1.99222798 77.9460798,2.85431655 76.5895579,4.23709441 L75.5,3.18164431 C77.1355496,1.52895605 79.4375103,0.5 81.987563,0.5 C84.5505699,0.5 86.8629578,1.53943672 88.5,3.20687933 Z" id="Wi-Fi"></path>
            <path d="M45.5683594,10.5 L45.4394531,10.1337891 C45.3535152,9.88964722 45.2548834,9.60840003 45.1435547,9.29003906 C45.032226,8.9716781 44.9335942,8.69043091 44.8476562,8.44628906 L44.71875,8.08007812 L41.3554688,8.08007812 L40.5058594,10.5 L39.3984375,10.5 L42.515625,2.04492188 L43.5585938,2.04492188 L46.6757812,10.5 L45.5683594,10.5 Z M42.9902344,3.41015625 L42.8554688,3.79101562 C42.7656246,4.04492314 42.6552741,4.35937313 42.5244141,4.734375 L42.1318359,5.859375 C42.0009759,6.23437688 41.8906254,6.54882686 41.8007812,6.80273438 L41.6660156,7.18359375 L44.4082031,7.18359375 L43.0839844,3.41015625 L42.9902344,3.41015625 Z M51.4101562,10.5 L51.4101562,2.99414062 L54.1347656,2.99414062 L54.1347656,2.04492188 L47.6308594,2.04492188 L47.6308594,2.99414062 L50.3554688,2.99414062 L50.3554688,10.5 L51.4101562,10.5 Z M61.734375,10.5 L61.5410156,10.2890625 C61.4121087,10.1484368 61.2822272,10.0078132 61.1513672,9.8671875 L60.9550781,9.65625 C60.5957013,9.97265783 60.1777368,10.2187491 59.7011719,10.3945312 C59.224607,10.5703134 58.7304713,10.6582031 58.21875,10.6582031 C57.3789021,10.6582031 56.6923855,10.4326194 56.1591797,9.98144531 C55.6259739,9.53027118 55.359375,8.95117541 55.359375,8.24414062 C55.359375,7.74413812 55.4970689,7.29980663 55.7724609,6.91113281 C56.0478529,6.52245899 56.4687472,6.17968898 57.0351562,5.8828125 C57.0625001,5.87109369 57.0957029,5.85546885 57.1347656,5.8359375 C57.1738283,5.81640615 57.213867,5.79589854 57.2548828,5.77441406 C57.2958986,5.75292958 57.3320311,5.73437508 57.3632812,5.71875 C56.9726543,5.3085917 56.698243,4.9531265 56.5400391,4.65234375 C56.3818351,4.351561 56.3027344,4.04687654 56.3027344,3.73828125 C56.3027344,3.19530979 56.5078104,2.74414242 56.9179688,2.38476562 C57.3281271,2.02538883 57.8417938,1.84570312 58.4589844,1.84570312 C59.0839875,1.84570312 59.5996073,2.02441228 60.0058594,2.38183594 C60.4121114,2.7392596 60.6152344,3.19530973 60.6152344,3.75 C60.6152344,4.18359592 60.4736342,4.5703108 60.1904297,4.91015625 C59.9072251,5.2500017 59.4394564,5.59179516 58.7871094,5.93554688 L60.9023438,8.20898438 C61.0351569,7.94335805 61.1347653,7.62988462 61.2011719,7.26855469 C61.2675785,6.90722476 61.3007812,6.46289326 61.3007812,5.93554688 L61.3007812,5.7890625 L62.2851562,5.7890625 L62.2851562,5.94140625 C62.2851562,6.59765953 62.2265631,7.16894288 62.109375,7.65527344 C61.9921869,8.14160399 61.8183605,8.56445133 61.5878906,8.92382812 L63.0585938,10.5 L61.734375,10.5 Z M57.6445312,6.50390625 C57.2382792,6.7148448 56.9316417,6.9628892 56.7246094,7.24804688 C56.5175771,7.53320455 56.4140625,7.84179521 56.4140625,8.17382812 C56.4140625,8.64648674 56.5888654,9.03027196 56.9384766,9.32519531 C57.2880877,9.62011866 57.7460909,9.76757812 58.3125,9.76757812 C58.6953144,9.76757812 59.0703107,9.69628978 59.4375,9.55371094 C59.8046893,9.4111321 60.1035145,9.21875121 60.3339844,8.9765625 L57.9433594,6.36328125 C57.923828,6.37109379 57.895508,6.38378897 57.8583984,6.40136719 C57.8212889,6.4189454 57.7832033,6.43652335 57.7441406,6.45410156 C57.7050779,6.47167978 57.6718751,6.48828117 57.6445312,6.50390625 Z M58.21875,5.33789062 C58.7343776,5.0722643 59.0976552,4.8222668 59.3085938,4.58789062 C59.5195323,4.35351445 59.625,4.085939 59.625,3.78515625 C59.625,3.45702961 59.5175792,3.19140727 59.3027344,2.98828125 C59.0878896,2.78515523 58.8085955,2.68359375 58.4648438,2.68359375 C58.1289046,2.68359375 57.8525401,2.78710834 57.6357422,2.99414062 C57.4189442,3.20117291 57.3105469,3.46874836 57.3105469,3.796875 C57.3105469,4.03125117 57.3789056,4.26367072 57.515625,4.49414062 C57.6523444,4.72461053 57.8867171,5.00585771 58.21875,5.33789062 Z M67.5527344,10.5 L67.5527344,2.99414062 L70.2773438,2.99414062 L70.2773438,2.04492188 L63.7734375,2.04492188 L63.7734375,2.99414062 L66.4980469,2.99414062 L66.4980469,10.5 L67.5527344,10.5 Z" id="Carrier"></path>
            <path d="M3.25,8 C1.73121694,8 0.5,6.76878306 0.5,5.25 C0.5,3.73121694 1.73121694,2.5 3.25,2.5 C4.76878306,2.5 6,3.73121694 6,5.25 C6,6.76878306 4.76878306,8 3.25,8 Z M10.25,8 C8.73121694,8 7.5,6.76878306 7.5,5.25 C7.5,3.73121694 8.73121694,2.5 10.25,2.5 C11.7687831,2.5 13,3.73121694 13,5.25 C13,6.76878306 11.7687831,8 10.25,8 Z M17.25,8 C15.7312169,8 14.5,6.76878306 14.5,5.25 C14.5,3.73121694 15.7312169,2.5 17.25,2.5 C18.7687831,2.5 20,3.73121694 20,5.25 C20,6.76878306 18.7687831,8 17.25,8 Z M24.25,8 C22.7312169,8 21.5,6.76878306 21.5,5.25 C21.5,3.73121694 22.7312169,2.5 24.25,2.5 C25.7687831,2.5 27,3.73121694 27,5.25 C27,6.76878306 25.7687831,8 24.25,8 Z M31.25,8 C29.7312169,8 28.5,6.76878306 28.5,5.25 C28.5,3.73121694 29.7312169,2.5 31.25,2.5 C32.7687831,2.5 34,3.73121694 34,5.25 C34,6.76878306 32.7687831,8 31.25,8 Z" id="Mobile-Signal"></path>
        </g>
    </g>
</svg>