
<svg width="45px" height="10px" viewBox="0 0 45 10" version="1.1" xmlns="http://www.w3.org/2000/svg" xmlns:xlink="http://www.w3.org/1999/xlink">
    <!-- Generator: Sketch 44.1 (41455) - http://www.bohemiancoding.com/sketch -->
    <desc>Created with Sketch.</desc>
    <defs></defs>
    <g id="Components" stroke="none" stroke-width="1" fill="none" fill-rule="evenodd">
        <path d="M2.89453125,9.69335938 C2.17577766,9.69335938 1.56836186,9.49511917 1.07226562,9.09863281 C0.576169395,8.70214646 0.259766309,8.1640659 0.123046875,7.484375 L1.20703125,7.484375 C1.32031307,7.87890822 1.5283188,8.18945199 1.83105469,8.41601562 C2.13379058,8.64257926 2.49218543,8.75585938 2.90625,8.75585938 C3.59375344,8.75585938 4.12792778,8.45898734 4.50878906,7.86523438 C4.88965034,7.27148141 5.09374986,6.412115 5.12109375,5.28710938 L5.02734375,5.28710938 C4.82031146,5.69726768 4.51953322,6.01660042 4.125,6.24511719 C3.73046678,6.47363396 3.28125252,6.58789062 2.77734375,6.58789062 C1.97265223,6.58789062 1.30859637,6.32129173 0.78515625,5.78808594 C0.261716133,5.25488015 0,4.5781291 0,3.7578125 C0,2.90624574 0.277340977,2.20801054 0.83203125,1.66308594 C1.38672152,1.11816134 2.09765191,0.845703125 2.96484375,0.845703125 C4.26953777,0.845703125 5.19335666,1.48632172 5.73632812,2.76757812 C6.00976699,3.40820633 6.14648437,4.19335473 6.14648437,5.12304688 C6.14648437,6.57617914 5.86328408,7.70116789 5.296875,8.49804688 C4.73046592,9.29492586 3.92969268,9.69335938 2.89453125,9.69335938 Z M2.96484375,5.67382812 C3.52344029,5.67382812 3.98339663,5.49414242 4.34472656,5.13476562 C4.70605649,4.77538883 4.88671875,4.31640904 4.88671875,3.7578125 C4.88671875,3.19140342 4.70410339,2.71875189 4.33886719,2.33984375 C3.97363099,1.96093561 3.51953396,1.77148438 2.9765625,1.77148438 C2.43359104,1.77148438 1.97949401,1.95800595 1.61425781,2.33105469 C1.24902161,2.70410343 1.06640625,3.16796598 1.06640625,3.72265625 C1.06640625,4.30078414 1.24316229,4.77050601 1.59667969,5.13183594 C1.95019708,5.49316587 2.40624721,5.67382812 2.96484375,5.67382812 Z M8.67773438,8.53320312 C8.88867293,8.53320312 9.06835863,8.45800856 9.21679688,8.30761719 C9.36523512,8.15722581 9.43945312,7.97851666 9.43945312,7.77148438 C9.43945312,7.56054582 9.36523512,7.38086012 9.21679688,7.23242188 C9.06835863,7.08398363 8.88867293,7.00976562 8.67773438,7.00976562 C8.47070209,7.00976562 8.29199294,7.08398363 8.14160156,7.23242188 C7.99121019,7.38086012 7.91601562,7.56054582 7.91601562,7.77148438 C7.91601562,7.97851666 7.99121019,8.15722581 8.14160156,8.30761719 C8.29199294,8.45800856 8.47070209,8.53320312 8.67773438,8.53320312 Z M8.67773438,4.02734375 C8.88867293,4.02734375 9.06835863,3.95214919 9.21679688,3.80175781 C9.36523512,3.65136644 9.43945312,3.47265729 9.43945312,3.265625 C9.43945312,3.05468645 9.36523512,2.87500074 9.21679688,2.7265625 C9.06835863,2.57812426 8.88867293,2.50390625 8.67773438,2.50390625 C8.47070209,2.50390625 8.29199294,2.57812426 8.14160156,2.7265625 C7.99121019,2.87500074 7.91601562,3.05468645 7.91601562,3.265625 C7.91601562,3.47265729 7.99121019,3.65136644 8.14160156,3.80175781 C8.29199294,3.95214919 8.47070209,4.02734375 8.67773438,4.02734375 Z M15.2636719,9.5 L15.2636719,7.74804688 L11.1445312,7.74804688 L11.1445312,6.78710938 C11.3320322,6.4511702 11.5546862,6.07031463 11.8125,5.64453125 C12.0703138,5.21874787 12.3554672,4.75976809 12.6679688,4.26757812 C12.9804703,3.77538816 13.3134748,3.25781521 13.6669922,2.71484375 C14.0205096,2.17187229 14.3867169,1.61523723 14.765625,1.04492188 L16.2949219,1.04492188 L16.2949219,6.8046875 L17.4960938,6.8046875 L17.4960938,7.74804688 L16.2949219,7.74804688 L16.2949219,9.5 L15.2636719,9.5 Z M12.2226562,6.74023438 L12.2226562,6.81054688 L15.2695312,6.81054688 L15.2695312,2.0234375 L15.1992188,2.0234375 C14.9843739,2.33984533 14.7558606,2.68261534 14.5136719,3.05175781 C14.2714832,3.42090028 14.0214857,3.80761517 13.7636719,4.21191406 C13.5058581,4.61621296 13.2480482,5.03124787 12.9902344,5.45703125 C12.7324206,5.88281463 12.4765638,6.31054473 12.2226562,6.74023438 Z M21.1464844,9.5 L22.2011719,9.5 L22.2011719,1.04492188 L21.1523438,1.04492188 L20.8125,1.28808594 C20.5859364,1.45019612 20.3242202,1.6386708 20.0273438,1.85351562 C19.7304673,2.06836045 19.4687511,2.25683513 19.2421875,2.41894531 L18.9023438,2.66210938 L18.9023438,3.77539062 L19.2275391,3.54101562 C19.444337,3.38476484 19.6943345,3.20312604 19.9775391,2.99609375 C20.2607436,2.78906146 20.5107411,2.60742266 20.7275391,2.45117188 L21.0527344,2.21679688 L21.1464844,2.21679688 L21.1464844,9.5 Z M33.7382812,9.5 L33.609375,9.13378906 C33.5234371,8.88964722 33.4248052,8.60840003 33.3134766,8.29003906 C33.2021479,7.9716781 33.1035161,7.69043091 33.0175781,7.44628906 L32.8886719,7.08007812 L29.5253906,7.08007812 L28.6757812,9.5 L27.5683594,9.5 L30.6855469,1.04492188 L31.7285156,1.04492188 L34.8457031,9.5 L33.7382812,9.5 Z M31.1601562,2.41015625 L31.0253906,2.79101562 C30.9355464,3.04492314 30.825196,3.35937312 30.6943359,3.734375 L30.3017578,4.859375 C30.1708978,5.23437688 30.0605473,5.54882686 29.9707031,5.80273438 L29.8359375,6.18359375 L32.578125,6.18359375 L31.2539062,2.41015625 L31.1601562,2.41015625 Z M44.6601562,9.5 L44.6601562,1.04492188 L43.4355469,1.04492188 L40.5410156,8.04101562 L40.4472656,8.04101562 L37.5527344,1.04492188 L36.328125,1.04492188 L36.328125,9.5 L37.3125,9.5 L37.3125,3.04296875 L37.3828125,3.04296875 L40.0488281,9.44140625 L40.9394531,9.44140625 L43.6054688,3.04296875 L43.6757812,3.04296875 L43.6757812,9.5 L44.6601562,9.5 Z" id="Time" fill="#FFFFFF"></path>
    </g>
</svg>