
<svg width="219px" height="70px" viewBox="0 0 219 70" version="1.1" xmlns="http://www.w3.org/2000/svg" xmlns:xlink="http://www.w3.org/1999/xlink">
    <!-- Generator: Sketch 44.1 (41455) - http://www.bohemiancoding.com/sketch -->
    <desc>Created with Sketch.</desc>
    <defs></defs>
    <g id="White" stroke="none" stroke-width="1" fill="none" fill-rule="evenodd">
        <g id="Artboard-1" transform="translate(-115.000000, -638.000000)" fill="#000000">
            <path d="M143.893634,650.742834 C143.893634,652.224566 143.65903,653.626016 143.189815,654.947228 C142.7206,656.268439 141.942702,657.41059 140.856098,658.373716 C139.769495,659.336842 138.472998,659.818398 136.966571,659.818398 C135.08971,659.818398 133.385743,659.108412 131.85462,657.688419 C130.323497,656.268425 129.187519,654.595328 128.446653,652.669076 C127.705787,650.742824 127.335359,648.878339 127.335359,647.075565 C127.335359,645.593832 127.569963,644.192382 128.039178,642.87117 C128.508394,641.549959 129.286291,640.407808 130.372895,639.444682 C131.459499,638.481556 132.755995,638 134.262423,638 C136.163979,638 137.874119,638.709986 139.392895,640.129979 C140.911671,641.549973 142.041474,643.216897 142.782341,645.130801 C143.523207,647.044705 143.893634,648.915364 143.893634,650.742834 Z M131.224887,668.634661 C131.224887,670.610304 130.706288,672.326618 129.669076,673.783655 C128.631863,675.240691 127.162501,675.969199 125.260944,675.969199 C123.384084,675.969199 121.636901,675.283908 120.019343,673.913306 C118.401785,672.542703 117.160853,670.894301 116.296509,668.968049 C115.432165,667.041797 115,665.164964 115,663.337495 C115,661.361852 115.518599,659.639364 116.555811,658.169979 C117.593024,656.700595 119.062386,655.965914 120.963942,655.965914 C122.840803,655.965914 124.587986,656.651204 126.205544,658.021807 C127.823102,659.392409 129.064034,661.046985 129.928378,662.985585 C130.792721,664.924185 131.224887,666.807191 131.224887,668.634661 Z M145.819876,667.634497 C148.73395,667.634497 151.882584,668.838386 155.265872,671.246201 C158.649161,673.654016 161.476757,676.580393 163.748747,680.02542 C166.020736,683.470448 167.156714,686.612908 167.156714,689.452895 C167.156714,690.588889 166.946805,691.53348 166.526981,692.286693 C166.107157,693.039907 165.508299,693.595549 164.73039,693.953634 C163.95248,694.311719 163.156061,694.558671 162.341108,694.694496 C161.526156,694.830322 160.587739,694.898233 159.525831,694.898233 C157.846535,694.898233 155.531363,694.342592 152.580246,693.231293 C149.629129,692.119994 147.375695,691.564353 145.819876,691.564353 C144.189971,691.564353 141.813061,692.11382 138.689076,693.212771 C135.56509,694.311723 133.0894,694.86119 131.26193,694.86119 C126.742647,694.86119 124.483039,693.058443 124.483039,689.452895 C124.483039,687.329078 125.174504,684.964516 126.557454,682.359137 C127.940404,679.753758 129.662892,677.376848 131.724969,675.228336 C133.787046,673.079825 136.102218,671.277077 138.670554,669.820041 C141.23889,668.363004 143.621974,667.634497 145.819876,667.634497 Z M154.673182,659.818398 C153.166755,659.818398 151.870258,659.336842 150.783655,658.373716 C149.697051,657.41059 148.919153,656.268439 148.449938,654.947228 C147.980723,653.626016 147.746119,652.224566 147.746119,650.742834 C147.746119,648.915364 148.116546,647.044705 148.857412,645.130801 C149.598278,643.216897 150.728082,641.549973 152.246858,640.129979 C153.765633,638.709986 155.475774,638 157.37733,638 C158.883758,638 160.180254,638.481556 161.266858,639.444682 C162.353461,640.407808 163.131359,641.549959 163.600574,642.87117 C164.06979,644.192382 164.304394,645.593832 164.304394,647.075565 C164.304394,648.878339 163.933966,650.742824 163.1931,652.669076 C162.452234,654.595328 161.316256,656.268425 159.785133,657.688419 C158.25401,659.108412 156.550043,659.818398 154.673182,659.818398 Z M170.67581,655.965914 C172.577367,655.965914 174.046729,656.700595 175.083942,658.169979 C176.121154,659.639364 176.639753,661.361852 176.639753,663.337495 C176.639753,665.164964 176.207587,667.041797 175.343244,668.968049 C174.4789,670.894301 173.237968,672.542703 171.62041,673.913306 C170.002852,675.283908 168.255669,675.969199 166.378808,675.969199 C164.477252,675.969199 163.00789,675.240691 161.970677,673.783655 C160.933465,672.326618 160.414866,670.610304 160.414866,668.634661 C160.414866,666.807191 160.847031,664.924185 161.711375,662.985585 C162.575719,661.046985 163.816651,659.392409 165.434209,658.021807 C167.051767,656.651204 168.79895,655.965914 170.67581,655.965914 Z M186.313717,683.624797 L187.18995,662.834182 C187.18995,661.028603 186.234069,659.169946 184.322279,657.258155 L184.481594,656.302265 C184.853331,656.196055 185.211786,656.103122 185.55697,656.023464 C185.902155,655.943806 186.300438,655.850873 186.751833,655.744662 C187.203228,655.638452 187.720997,655.532243 188.305155,655.426032 C188.889313,655.319822 189.500015,655.213613 190.137278,655.107402 C191.624226,654.948086 193.018219,654.86843 194.319298,654.86843 C195.620378,654.86843 196.735572,655.399474 197.664915,656.46158 C198.594257,657.523686 199.058921,659.209753 199.058921,661.519833 C199.058921,663.829913 198.700466,667.122391 197.983545,671.397366 C197.266623,675.672342 196.908168,678.858611 196.908168,680.95627 C196.908168,683.053928 197.412661,684.102742 198.421661,684.102742 C200.067925,684.102742 201.873477,683.067204 203.838373,680.996098 C203.891478,680.146414 204.236657,677.438085 204.873921,672.871031 C205.511184,668.303976 205.829811,664.984946 205.829811,662.91384 C205.829811,660.842734 205.670498,659.063733 205.351866,657.576786 C209.440973,656.036732 213.105182,655.266717 216.344605,655.266717 C217.034973,655.744665 217.380152,657.297971 217.380152,659.926683 C217.380152,662.555394 216.928764,666.193051 216.025974,670.839764 C215.123185,675.486476 214.671797,678.858611 214.671797,680.95627 C214.671797,683.053928 215.096632,684.102742 215.946317,684.102742 C217.964318,684.102742 220.168154,682.60254 222.557892,679.602092 C224.947629,676.601643 226.222137,674.092456 226.381453,672.074455 L220.964741,666.020483 C221.177162,663.736956 221.734759,661.665881 222.637549,659.807196 C223.540339,657.948511 224.390011,656.647451 225.18659,655.903977 L226.301795,654.86843 C228.585323,654.86843 230.311218,655.479131 231.479535,656.700553 C232.647851,657.921974 233.232,659.355795 233.232,661.002059 C233.232,665.197377 232.196463,669.631601 230.125357,674.304866 C228.054251,678.978131 225.266265,682.947691 221.761316,686.213666 C218.256368,689.479641 214.698367,691.112604 211.087208,691.112604 C209.281628,691.112604 207.754874,690.594836 206.5069,689.559283 C205.258926,688.52373 204.42253,687.182841 203.997688,685.536577 C200.280318,689.253947 196.669213,691.112604 193.164264,691.112604 C190.827632,691.112604 189.101736,690.382418 187.986525,688.922022 C186.871314,687.461627 186.313717,685.695903 186.313717,683.624797 Z M256.899137,657.178498 C257.005347,657.072287 257.297422,656.381929 257.775369,655.107402 C260.271318,655.107402 263.6169,655.850865 267.812218,657.337813 C266.484586,661.745551 265.422496,666.352366 264.625917,671.158394 C263.829337,675.964422 263.431054,679.389661 263.431054,681.434215 C263.431054,683.478768 263.643472,684.50103 264.068314,684.50103 C264.386946,684.50103 265.555244,683.996537 267.573245,682.987537 L268.529136,682.509591 L269.962971,685.297605 C269.485023,685.722447 268.861046,686.253492 268.091019,686.890755 C267.320993,687.528019 265.873895,688.390967 263.749684,689.479625 C261.625473,690.568283 259.713711,691.112604 258.014342,691.112604 C254.721814,691.112604 252.810053,689.625679 252.279,686.651783 C248.880262,689.625679 245.813478,691.112604 243.078556,691.112604 C240.343634,691.112604 238.033588,690.050515 236.148351,687.926303 C234.263113,685.802092 233.320509,682.456509 233.320509,677.889455 C233.320509,670.773347 234.780882,665.157547 237.701673,661.041888 C240.622463,656.926228 244.153912,654.86843 248.296124,654.86843 C251.27002,654.86843 254.137662,655.638445 256.899137,657.178498 Z M247.818179,684.341715 C249.092705,684.341715 250.526526,683.837222 252.119685,682.828222 C252.491422,675.340377 253.739377,667.932301 255.863589,660.603772 C254.27043,659.913403 252.916266,659.568224 251.801055,659.568224 C249.889265,659.568224 248.256302,661.440157 246.902117,665.184079 C245.547932,668.928002 244.87085,673.056876 244.87085,677.570825 C244.87085,682.084774 245.853283,684.341715 247.818179,684.341715 Z M282.894043,707.083938 C281.088463,707.694649 279.336015,708 277.636646,708 C275.937277,708 274.55656,707.52206 273.494455,706.566165 C272.432349,705.610269 271.901304,704.242829 271.901304,702.463802 C271.901304,700.684775 273.043051,698.998707 275.326578,697.405549 C277.610105,695.81239 279.867046,694.723748 282.097468,694.13959 L285.522741,693.343015 L286.717604,686.970413 C283.637498,689.307045 280.676923,690.475344 277.83579,690.475344 C274.994657,690.475344 272.684612,689.386702 270.905585,687.209385 C269.126558,685.032069 268.237058,681.553725 268.237058,676.774249 C268.237058,670.507826 269.644327,665.29031 272.458907,661.121545 C275.273487,656.952781 278.990801,654.86843 283.610961,654.86843 C286.213119,654.86843 288.788687,655.505683 291.337741,656.78021 C294.04611,655.824315 296.966857,655.346375 300.100069,655.346375 L301.772877,655.426032 C301.932193,656.063296 302.011849,656.966072 302.011849,658.134388 C302.011849,662.807653 300.339058,673.295789 296.993425,689.599111 C296.409267,692.944744 295.347177,695.878767 293.807124,698.401268 C292.267071,700.923769 290.514623,702.848807 288.549727,704.176439 C286.584832,705.504071 284.699622,706.473228 282.894043,707.083938 Z M287.195549,659.568224 C284.912022,659.568224 283.10647,661.413605 281.778837,665.104422 C280.451205,668.795239 279.787399,672.884284 279.787399,677.371681 C279.787399,681.859077 280.796385,684.102742 282.814385,684.102742 C284.142017,684.102742 285.7086,683.598249 287.514179,682.589249 C289.001127,673.667561 290.063217,666.31259 290.70048,660.524114 C289.213533,659.886851 288.045234,659.568224 287.195549,659.568224 Z M275.485893,702.264658 C275.485893,703.273658 276.083318,703.778151 277.278187,703.778151 C278.473056,703.778151 279.787392,703.101069 281.221235,701.746884 C282.655077,700.392699 283.796824,698.733184 284.646508,696.768289 C282.894034,696.98071 280.929168,697.63124 278.751851,698.719898 C276.574535,699.808556 275.485893,700.990131 275.485893,702.264658 Z M304.180304,690.395687 L303.622701,690.395687 C303.516491,689.970844 303.463386,689.001687 303.463386,687.488187 C303.463386,685.974686 304.180297,681.898917 305.61414,675.260756 C307.047982,668.622596 307.764893,664.825625 307.764893,663.86973 C307.764893,662.223466 307.02143,660.417914 305.534482,658.453018 L304.817564,657.497128 L304.897222,656.46158 C307.764907,655.665001 312.358445,655.266717 318.677974,655.266717 C319.315237,656.647455 319.633864,658.585768 319.633864,661.081717 C320.218023,660.125822 321.439426,658.851314 323.298111,657.258155 C325.156796,655.664997 327.068557,654.86843 329.033453,654.86843 C331.901138,654.86843 333.334959,657.36434 333.334959,662.356237 C333.069433,662.674869 332.710977,663.086429 332.259582,663.590929 C331.808187,664.095429 330.905411,664.799063 329.551226,665.701853 C328.197042,666.604643 326.882706,667.16224 325.608179,667.374661 C325.555074,667.374661 325.103685,666.657751 324.254001,665.223908 C323.404316,663.790065 322.767063,663.073155 322.34222,663.073155 C321.014588,663.551102 319.84629,664.34767 318.837289,665.462881 C316.394446,676.455674 315.173043,683.571676 315.173043,686.811098 C315.173043,687.979414 315.199595,688.802534 315.2527,689.280481 C313.394015,690.023955 309.703254,690.395687 304.180304,690.395687 Z" id="logo-copy"></path>
        </g>
    </g>
</svg>