
<svg width="198px" height="65px" viewBox="0 0 198 65" version="1.1" xmlns="http://www.w3.org/2000/svg" xmlns:xlink="http://www.w3.org/1999/xlink">
    <!-- Generator: Sketch 44.1 (41455) - http://www.bohemiancoding.com/sketch -->
    <desc>Created with Sketch.</desc>
    <defs></defs>
    <g id="Page-1" stroke="none" stroke-width="1" fill="none" fill-rule="evenodd">
        <g id="Desktop-HD" transform="translate(-420.000000, -22.000000)" fill="#FFFFFF">
            <path d="M446.116071,34.375 C446.116071,35.7142924 445.90402,36.9810208 445.479911,38.1752232 C445.055801,39.3694256 444.352683,40.4017814 443.370536,41.2723214 C442.388388,42.1428615 441.216525,42.578125 439.854911,42.578125 C438.158474,42.578125 436.61831,41.9363903 435.234375,40.6529018 C433.85044,39.3694132 432.823664,37.8571516 432.154018,36.1160714 C431.484372,34.3749913 431.149554,32.6897403 431.149554,31.0602679 C431.149554,29.7209754 431.361605,28.454247 431.785714,27.2600446 C432.209824,26.0658422 432.912942,25.0334865 433.895089,24.1629464 C434.877237,23.2924064 436.0491,22.8571429 437.410714,22.8571429 C439.129473,22.8571429 440.675216,23.4988775 442.047991,24.7823661 C443.420766,26.0658546 444.441961,27.572536 445.111607,29.3024554 C445.781253,31.0323747 446.116071,32.723206 446.116071,34.375 Z M434.665179,50.546875 C434.665179,52.3325982 434.196433,53.883922 433.258929,55.2008929 C432.321424,56.5178637 430.993312,57.1763393 429.274554,57.1763393 C427.578117,57.1763393 425.998891,56.5569258 424.53683,55.3180804 C423.074769,54.0792349 421.953129,52.5892944 421.171875,50.8482143 C420.390621,49.1071342 420,47.4107225 420,45.7589286 C420,43.9732054 420.468745,42.4163013 421.40625,41.0881696 C422.343755,39.760038 423.671866,39.0959821 425.390625,39.0959821 C427.087062,39.0959821 428.666287,39.7153956 430.128348,40.9542411 C431.590409,42.1930866 432.71205,43.6886073 433.493304,45.4408482 C434.274557,47.1930891 434.665179,48.895081 434.665179,50.546875 Z M447.857143,49.6428571 C450.491085,49.6428571 453.337038,50.7310159 456.395089,52.9073661 C459.45314,55.0837162 462.008918,57.7287791 464.0625,60.8426339 C466.116082,63.9564888 467.142857,66.7968622 467.142857,69.3638393 C467.142857,70.3906301 466.953127,71.2444162 466.573661,71.9252232 C466.194195,72.6060302 465.652905,73.1082573 464.949777,73.4319196 C464.246648,73.755582 463.526789,73.978794 462.790179,74.1015625 C462.053568,74.224331 461.205362,74.2857143 460.245536,74.2857143 C458.727671,74.2857143 456.635058,73.7834872 453.967634,72.7790179 C451.30021,71.7745485 449.2634,71.2723214 447.857143,71.2723214 C446.383921,71.2723214 444.235505,71.7689682 441.41183,72.7622768 C438.588156,73.7555853 436.350455,74.2522321 434.698661,74.2522321 C430.613819,74.2522321 428.571429,72.6227842 428.571429,69.3638393 C428.571429,67.4441868 429.196422,65.3069314 430.446429,62.9520089 C431.696435,60.5970864 433.253339,58.4486704 435.117188,56.5066964 C436.981036,54.5647224 439.073649,52.9352744 441.395089,51.6183036 C443.716529,50.3013327 445.870526,49.6428571 447.857143,49.6428571 Z M455.859375,42.578125 C454.497761,42.578125 453.325898,42.1428615 452.34375,41.2723214 C451.361602,40.4017814 450.658484,39.3694256 450.234375,38.1752232 C449.810266,36.9810208 449.598214,35.7142924 449.598214,34.375 C449.598214,32.723206 449.933032,31.0323747 450.602679,29.3024554 C451.272325,27.572536 452.29352,26.0658546 453.666295,24.7823661 C455.039069,23.4988775 456.584813,22.8571429 458.303571,22.8571429 C459.665185,22.8571429 460.837049,23.2924064 461.819196,24.1629464 C462.801344,25.0334865 463.504462,26.0658422 463.928571,27.2600446 C464.352681,28.454247 464.564732,29.7209754 464.564732,31.0602679 C464.564732,32.6897403 464.229914,34.3749913 463.560268,36.1160714 C462.890622,37.8571516 461.863846,39.3694132 460.479911,40.6529018 C459.095975,41.9363903 457.555812,42.578125 455.859375,42.578125 Z M470.323661,39.0959821 C472.042419,39.0959821 473.370531,39.760038 474.308036,41.0881696 C475.24554,42.4163013 475.714286,43.9732054 475.714286,45.7589286 C475.714286,47.4107225 475.323665,49.1071342 474.542411,50.8482143 C473.761157,52.5892944 472.639516,54.0792349 471.177455,55.3180804 C469.715394,56.5569258 468.136169,57.1763393 466.439732,57.1763393 C464.720974,57.1763393 463.392862,56.5178637 462.455357,55.2008929 C461.517852,53.883922 461.049107,52.3325982 461.049107,50.546875 C461.049107,48.895081 461.439728,47.1930891 462.220982,45.4408482 C463.002236,43.6886073 464.123877,42.1930866 465.585937,40.9542411 C467.047998,39.7153956 468.627224,39.0959821 470.323661,39.0959821 Z M484.458286,64.096 L485.250286,45.304 C485.250286,43.6719918 484.386294,41.9920086 482.658286,40.264 L482.802286,39.4 C483.138287,39.3039995 483.462284,39.2200004 483.774286,39.148 C484.086287,39.0759996 484.446284,38.9920005 484.854286,38.896 C485.262288,38.7999995 485.730283,38.7040005 486.258286,38.608 C486.786288,38.5119995 487.338283,38.4160005 487.914286,38.32 C489.258292,38.1759993 490.51828,38.104 491.694286,38.104 C492.870292,38.104 493.878282,38.5839952 494.718286,39.544 C495.55829,40.5040048 495.978286,42.0279896 495.978286,44.116 C495.978286,46.2040104 495.654289,49.1799807 495.006286,53.044 C494.358282,56.9080193 494.034286,59.7879905 494.034286,61.684 C494.034286,63.5800095 494.490281,64.528 495.402286,64.528 C496.890293,64.528 498.522277,63.5920094 500.298286,61.72 C500.346286,60.9519962 500.658283,58.5040206 501.234286,54.376 C501.810289,50.2479794 502.098286,47.2480094 502.098286,45.376 C502.098286,43.5039906 501.954287,41.8960067 501.666286,40.552 C505.362304,39.159993 508.674271,38.464 511.602286,38.464 C512.226289,38.8960022 512.538286,40.2999881 512.538286,42.676 C512.538286,45.0520119 512.13029,48.339979 511.314286,52.54 C510.498282,56.740021 510.090286,59.7879905 510.090286,61.684 C510.090286,63.5800095 510.474282,64.528 511.242286,64.528 C513.066295,64.528 515.058275,63.1720136 517.218286,60.46 C519.378297,57.7479864 520.530285,55.4800091 520.674286,53.656 L515.778286,48.184 C515.970287,46.1199897 516.474282,44.2480084 517.290286,42.568 C518.10629,40.8879916 518.874282,39.7120034 519.594286,39.04 L520.602286,38.104 C522.666296,38.104 524.22628,38.6559945 525.282286,39.76 C526.338291,40.8640055 526.866286,42.1599926 526.866286,43.648 C526.866286,47.440019 525.930295,51.4479789 524.058286,55.672 C522.186276,59.8960211 519.666302,63.4839852 516.498286,66.436 C513.33027,69.3880148 510.114302,70.864 506.850286,70.864 C505.218278,70.864 503.838291,70.3960047 502.710286,69.46 C501.58228,68.5239953 500.826288,67.3120074 500.442286,65.824 C497.082269,69.1840168 493.818302,70.864 490.650286,70.864 C488.538275,70.864 486.978291,70.2040066 485.970286,68.884 C484.962281,67.5639934 484.458286,65.9680094 484.458286,64.096 Z M548.258286,40.192 C548.354286,40.0959995 548.618284,39.4720058 549.050286,38.32 C551.306297,38.32 554.330267,38.9919933 558.122286,40.336 C556.92228,44.3200199 555.962289,48.4839783 555.242286,52.828 C554.522282,57.1720217 554.162286,60.2679908 554.162286,62.116 C554.162286,63.9640092 554.354284,64.888 554.738286,64.888 C555.026287,64.888 556.082277,64.4320046 557.906286,63.52 L558.770286,63.088 L560.066286,65.608 C559.634284,65.9920019 559.070289,66.4719971 558.374286,67.048 C557.678282,67.6240029 556.370295,68.4039951 554.450286,69.388 C552.530276,70.3720049 550.802293,70.864 549.266286,70.864 C546.290271,70.864 544.562288,69.5200134 544.082286,66.832 C541.01027,69.5200134 538.238298,70.864 535.766286,70.864 C533.294273,70.864 531.206294,69.9040096 529.502286,67.984 C527.798277,66.0639904 526.946286,63.0400206 526.946286,58.912 C526.946286,52.4799678 528.266273,47.4040186 530.906286,43.684 C533.546299,39.9639814 536.738267,38.104 540.482286,38.104 C543.170299,38.104 545.762273,38.799993 548.258286,40.192 Z M540.050286,64.744 C541.202291,64.744 542.498279,64.2880046 543.938286,63.376 C544.274287,56.6079662 545.402276,49.9120331 547.322286,43.288 C545.882279,42.6639969 544.658291,42.352 543.650286,42.352 C541.922277,42.352 540.446292,44.0439831 539.222286,47.428 C537.99828,50.8120169 537.386286,54.5439796 537.386286,58.624 C537.386286,62.7040204 538.274277,64.744 540.050286,64.744 Z M571.754286,85.3 C570.122278,85.8520028 568.538293,86.128 567.002286,86.128 C565.466278,86.128 564.218291,85.6960043 563.258286,84.832 C562.298281,83.9679957 561.818286,82.732008 561.818286,81.124 C561.818286,79.515992 562.850275,77.9920072 564.914286,76.552 C566.978296,75.1119928 569.018276,74.1280026 571.034286,73.6 L574.130286,72.88 L575.210286,67.12 C572.426272,69.2320106 569.750299,70.288 567.182286,70.288 C564.614273,70.288 562.526294,69.3040098 560.918286,67.336 C559.310278,65.3679902 558.506286,62.2240216 558.506286,57.904 C558.506286,52.2399717 559.778273,47.5240188 562.322286,43.756 C564.866298,39.9879812 568.226265,38.104 572.402286,38.104 C574.754297,38.104 577.082274,38.6799942 579.386286,39.832 C581.834298,38.9679957 584.474272,38.536 587.306286,38.536 L588.818286,38.608 C588.962286,39.1840029 589.034286,39.9999947 589.034286,41.056 C589.034286,45.2800211 587.522301,54.7599263 584.498286,69.496 C583.970283,72.5200151 583.010293,75.1719886 581.618286,77.452 C580.226279,79.7320114 578.642295,81.471994 576.866286,82.672 C575.090277,83.872006 573.386294,84.7479972 571.754286,85.3 Z M575.642286,42.352 C573.578275,42.352 571.946292,44.0199833 570.746286,47.356 C569.54628,50.6920167 568.946286,54.3879797 568.946286,58.444 C568.946286,62.5000203 569.858277,64.528 571.682286,64.528 C572.882292,64.528 574.298278,64.0720046 575.930286,63.16 C577.274292,55.0959597 578.234283,48.4480262 578.810286,43.216 C577.466279,42.6399971 576.41029,42.352 575.642286,42.352 Z M565.058286,80.944 C565.058286,81.8560046 565.59828,82.312 566.678286,82.312 C567.758291,82.312 568.946279,81.7000061 570.242286,80.476 C571.538292,79.2519939 572.570282,77.7520089 573.338286,75.976 C571.754278,76.168001 569.978296,76.7559951 568.010286,77.74 C566.042276,78.7240049 565.058286,79.7919942 565.058286,80.944 Z M590.994286,70.216 L590.490286,70.216 C590.394285,69.8319981 590.346286,68.9560068 590.346286,67.588 C590.346286,66.2199932 590.994279,62.53603 592.290286,56.536 C593.586292,50.53597 594.234286,47.1040043 594.234286,46.24 C594.234286,44.7519926 593.562292,43.1200089 592.218286,41.344 L591.570286,40.48 L591.642286,39.544 C594.234299,38.8239964 598.386257,38.464 604.098286,38.464 C604.674289,39.7120062 604.962286,41.4639887 604.962286,43.72 C605.490288,42.8559957 606.594277,41.7040072 608.274286,40.264 C609.954294,38.8239928 611.682277,38.104 613.458286,38.104 C616.050299,38.104 617.346286,40.3599774 617.346286,44.872 C617.106285,45.1600014 616.782288,45.5319977 616.374286,45.988 C615.966284,46.4440023 615.150292,47.0799959 613.926286,47.896 C612.70228,48.7120041 611.514291,49.215999 610.362286,49.408 C610.314285,49.408 609.90629,48.7600065 609.138286,47.464 C608.370282,46.1679935 607.794288,45.52 607.410286,45.52 C606.21028,45.9520022 605.15429,46.671995 604.242286,47.68 C602.034275,57.6160497 600.930286,64.0479854 600.930286,66.976 C600.930286,68.0320053 600.954285,68.7759978 601.002286,69.208 C599.322277,69.8800034 595.986311,70.216 590.994286,70.216 Z" id="-wagr"></path>
        </g>
    </g>
</svg>