
<svg width="200px" height="200px" viewBox="0 0 200 200" version="1.1" xmlns="http://www.w3.org/2000/svg" xmlns:xlink="http://www.w3.org/1999/xlink">
    <!-- Generator: Sketch 44.1 (41455) - http://www.bohemiancoding.com/sketch -->
    <desc>Created with Sketch.</desc>
    <defs></defs>
    <g id="Page-1" stroke="none" stroke-width="1" fill="none" fill-rule="evenodd">
        <g id="Medication">
            <circle id="Oval" fill="#587BCD" cx="100" cy="100" r="100"></circle>
            <path d="M154.90625,48.09375 C161.843785,55.0312847 165.3125,63.4687003 165.3125,73.40625 C165.3125,83.3437997 161.843785,91.8749644 154.90625,99 L104,149.90625 C96.8749644,156.843785 88.3437997,160.3125 78.40625,160.3125 C68.4687003,160.3125 60.0312847,156.843785 53.09375,149.90625 C46.1562153,142.968715 42.6875,134.5313 42.6875,124.59375 C42.6875,114.6562 46.1562153,106.125036 53.09375,99 L104,48.09375 C111.125036,41.1562153 119.6562,37.6875 129.59375,37.6875 C139.5313,37.6875 147.968715,41.1562153 154.90625,48.09375 Z M146.46875,56.53125 C141.781227,51.8437266 136.109408,49.5 129.453125,49.5 C122.796842,49.5 117.125023,51.8437266 112.4375,56.53125 L87.125,82.125 L120.875,115.875 L146.46875,90.5625 C151.156273,85.8749766 153.5,80.2031583 153.5,73.546875 C153.5,66.8905917 151.156273,61.2187734 146.46875,56.53125 Z" id="h" fill="#FFFFFF"></path>
        </g>
    </g>
</svg>