
<svg width="200px" height="200px" viewBox="0 0 200 200" version="1.1" xmlns="http://www.w3.org/2000/svg" xmlns:xlink="http://www.w3.org/1999/xlink">
    <!-- Generator: Sketch 44.1 (41455) - http://www.bohemiancoding.com/sketch -->
    <desc>Created with Sketch.</desc>
    <defs></defs>
    <g id="Page-1" stroke="none" stroke-width="1" fill="none" fill-rule="evenodd">
        <g id="note">
            <circle id="Oval" fill="#47C3C3" cx="100" cy="100" r="100"></circle>
            <path d="M106.46875,127.78125 L115.234375,119.015625 L103.546875,107.59375 L94.78125,116.359375 L94.78125,120.609375 L102.21875,120.609375 L102.21875,127.78125 L106.46875,127.78125 Z M139.671875,73.328125 C138.786454,72.4427039 137.989587,72.4427039 137.28125,73.328125 L110.71875,99.890625 C110.010413,100.776046 110.010413,101.572913 110.71875,102.28125 C111.427087,102.989587 112.223954,102.989587 113.109375,102.28125 L139.671875,75.71875 C140.557296,75.0104131 140.557296,74.2135461 139.671875,73.328125 Z M145.78125,118.21875 L145.78125,132.828125 C145.78125,138.848988 143.656271,143.984354 139.40625,148.234375 C135.156229,152.484396 130.020863,154.609375 124,154.609375 L60.78125,154.609375 C54.7603866,154.609375 49.6250213,152.484396 45.375,148.234375 C41.1249787,143.984354 39,138.848988 39,132.828125 L39,69.609375 C39,63.5885116 41.1249787,58.4531463 45.375,54.203125 C49.6250213,49.9531037 54.7603866,47.828125 60.78125,47.828125 L124,47.828125 C127.3646,47.828125 130.286446,48.4479105 132.765625,49.6875 C133.651046,50.0416684 134.182291,50.5729131 134.359375,51.28125 C134.359375,51.9895869 134.093753,52.7864539 133.5625,53.671875 L129.84375,57.390625 C128.958329,57.9218777 128.161462,58.0989592 127.453125,57.921875 C125.682283,57.5677066 124.531253,57.390625 124,57.390625 L60.78125,57.390625 C57.5937341,57.390625 54.7604291,58.6301959 52.28125,61.109375 C49.9791552,63.4114698 48.828125,66.2447748 48.828125,69.609375 L48.828125,132.828125 C48.828125,136.192725 49.9791552,139.02603 52.28125,141.328125 C54.5833448,143.63022 57.4166498,144.78125 60.78125,144.78125 L124,144.78125 C127.3646,144.78125 130.197905,143.63022 132.5,141.328125 C134.979179,138.848946 136.21875,136.015641 136.21875,132.828125 L136.21875,123.265625 C136.21875,122.734372 136.395832,122.114587 136.75,121.40625 L141.796875,116.625 C142.328128,115.739579 143.213535,115.562497 144.453125,116.09375 C145.338546,116.625003 145.78125,117.333329 145.78125,118.21875 Z M138.609375,62.171875 L160.390625,84.21875 L109.390625,135.21875 L87.609375,135.21875 L87.609375,113.171875 L138.609375,62.171875 Z M172.34375,72.265625 L165.171875,79.171875 L143.390625,57.390625 L150.296875,50.484375 C152.067717,49.0677012 153.838533,48.359375 155.609375,48.359375 C157.557301,48.359375 159.239576,49.0677012 160.65625,50.484375 L172.34375,61.90625 C173.760424,63.6770922 174.46875,65.4479078 174.46875,67.21875 C174.46875,69.1666764 173.760424,70.8489512 172.34375,72.265625 Z" id="b" fill="#FFFFFF"></path>
        </g>
    </g>
</svg>