
<svg width="200px" height="200px" viewBox="0 0 200 200" version="1.1" xmlns="http://www.w3.org/2000/svg" xmlns:xlink="http://www.w3.org/1999/xlink">
    <!-- Generator: Sketch 44.1 (41455) - http://www.bohemiancoding.com/sketch -->
    <desc>Created with Sketch.</desc>
    <defs></defs>
    <g id="Page-1" stroke="none" stroke-width="1" fill="none" fill-rule="evenodd">
        <g id="picture">
            <circle id="Oval" fill="#FFC95D" cx="100" cy="100" r="100"></circle>
            <path d="M102.792969,81.75 C109.563836,81.75 115.318987,84.119768 120.058594,88.859375 C124.798201,93.598982 127.167969,99.3541328 127.167969,106.125 C127.167969,112.895867 124.798201,118.651018 120.058594,123.390625 C115.318987,128.130232 109.563836,130.5 102.792969,130.5 C96.0221016,130.5 90.2669508,128.130232 85.5273438,123.390625 C80.7877367,118.651018 78.4179688,112.895867 78.4179688,106.125 C78.4179688,99.3541328 80.7877367,93.598982 85.5273438,88.859375 C90.2669508,84.119768 96.0221016,81.75 102.792969,81.75 Z M93.1445312,89.875 C103.977919,93.0911619 113.372356,97.7460633 121.328125,103.839844 C120.82031,99.1002367 118.78908,95.1224119 115.234375,91.90625 C111.67967,88.6900881 107.532576,87.0820312 102.792969,87.0820312 C99.2382635,87.0820312 96.0221498,88.0130115 93.1445312,89.875 Z M156.875,60.1679688 C162.291694,60.1679688 165,63.7226207 165,70.8320312 L165,135.832031 C165,143.110713 162.291694,146.75 156.875,146.75 L48.4570312,146.75 C45.410141,146.75 42.4056138,145.649751 39.4433594,143.449219 C36.481105,141.248687 35,138.70965 35,135.832031 L35,70.8320312 C35,68.1236844 36.481105,65.6692818 39.4433594,63.46875 C42.4056138,61.2682182 45.410141,60.1679688 48.4570312,60.1679688 L69.2773438,60.1679688 L72.8320312,49.25 L127.167969,49.25 L130.722656,60.1679688 L156.875,60.1679688 Z M102.792969,141.417969 C112.441454,141.417969 120.693325,137.990269 127.548828,131.134766 C134.404331,124.279263 137.832031,115.942757 137.832031,106.125 C137.832031,96.3072426 134.404331,87.9707374 127.548828,81.1152344 C120.693325,74.2597313 112.441454,70.8320312 102.792969,70.8320312 C92.9752113,70.8320312 84.6387062,74.2597313 77.7832031,81.1152344 C70.9277001,87.9707374 67.5,96.3072426 67.5,106.125 C67.5,115.942757 70.9277001,124.279263 77.7832031,131.134766 C84.6387062,137.990269 92.9752113,141.417969 102.792969,141.417969 Z M154.082031,81.75 L154.082031,70.8320312 L143.417969,70.8320312 L143.417969,81.75 L154.082031,81.75 Z" id="a" fill="#FFFFFF"></path>
        </g>
    </g>
</svg>