
<svg width="200px" height="200px" viewBox="0 0 200 200" version="1.1" xmlns="http://www.w3.org/2000/svg" xmlns:xlink="http://www.w3.org/1999/xlink">
    <!-- Generator: Sketch 44.1 (41455) - http://www.bohemiancoding.com/sketch -->
    <desc>Created with Sketch.</desc>
    <defs>
        <polygon id="path-1" points="0 106.131342 0 0.00406026786 135.778971 0.00406026786 135.778971 106.131342"></polygon>
    </defs>
    <g id="Page-1" stroke="none" stroke-width="1" fill="none" fill-rule="evenodd">
        <g id="potty">
            <circle id="Oval" fill="#7D5506" cx="100" cy="100" r="100"></circle>
            <g id="Page-1" transform="translate(32.000000, 47.000000)">
                <mask id="mask-2" fill="white">
                    <use xlink:href="#path-1"></use>
                </mask>
                <g id="Clip-2"></g>
                <path d="M25.1314208,63.528389 C19.4690568,48.8028541 27.248121,35.5175257 43.1348345,34.9399028 C52.8930516,34.5779257 61.1535313,32.7911453 65.1194786,23.8572434 C68.3441987,16.5714923 69.0701428,8.17670511 70.965239,-0.00243616071 C87.6237457,2.48519343 103.693856,18.6586366 103.21244,34.4392962 C120.016136,44.0047326 122.767082,49.3881787 117.624341,63.2203234 C119.565286,63.9288742 121.513873,64.5989169 123.431894,65.3459759 C132.571148,68.9195367 136.96502,76.2977075 135.50549,85.539675 C134.191149,93.8574458 127.520105,100.118879 118.189813,100.411541 C104.152347,100.858236 90.0995972,100.557872 76.0544892,100.573276 C60.7867385,100.580977 45.5113463,100.611784 30.2435956,100.588679 C16.3895255,100.580977 8.78621626,95.6211212 7.30376199,85.7553209 C5.63791131,74.6033467 10.71952,68.0492514 25.1314208,63.528389" id="Fill-1" fill="#FFFFFF" mask="url(#mask-2)"></path>
            </g>
        </g>
    </g>
</svg>