
<svg width="197px" height="197px" viewBox="0 0 197 197" version="1.1" xmlns="http://www.w3.org/2000/svg" xmlns:xlink="http://www.w3.org/1999/xlink">
    <!-- Generator: Sketch 44.1 (41455) - http://www.bohemiancoding.com/sketch -->
    <desc>Created with Sketch.</desc>
    <defs></defs>
    <g id="Page-1" stroke="none" stroke-width="1" fill="none" fill-rule="evenodd">
        <g id="check-copy-13" transform="translate(-2.000000, -2.000000)">
            <circle id="Oval" stroke="#FFFFFF" stroke-width="12" fill="#008585" cx="100.5" cy="100.5" r="92.5"></circle>
            <path d="M162.15625,73.5625 C162.15625,75.8125113 161.406258,77.5937434 159.90625,78.90625 L101.96875,137.125 L91,148.09375 C89.1249906,149.593757 87.2500094,150.34375 85.375,150.34375 C83.3124897,150.34375 81.5312575,149.593757 80.03125,148.09375 L40.09375,108.15625 C38.5937425,106.656242 37.84375,104.781261 37.84375,102.53125 C37.84375,100.281239 38.5937425,98.5000066 40.09375,97.1875 L50.78125,86.21875 C52.6562594,84.7187425 54.5312406,83.96875 56.40625,83.96875 C58.4687603,83.96875 60.2499925,84.7187425 61.75,86.21875 L85.375,109.84375 L138.25,56.96875 C139.750007,55.4687425 141.53124,54.71875 143.59375,54.71875 C145.468759,54.71875 147.343741,55.4687425 149.21875,56.96875 L159.90625,67.9375 C161.406258,69.4375075 162.15625,71.3124887 162.15625,73.5625 Z" id="j" fill="#FFFFFF"></path>
        </g>
    </g>
</svg>