
<svg width="200px" height="200px" viewBox="0 0 200 200" version="1.1" xmlns="http://www.w3.org/2000/svg" xmlns:xlink="http://www.w3.org/1999/xlink">
    <!-- Generator: Sketch 44.1 (41455) - http://www.bohemiancoding.com/sketch -->
    <desc>Created with Sketch.</desc>
    <defs></defs>
    <g id="Page-1" stroke="none" stroke-width="1" fill="none" fill-rule="evenodd">
        <g id="incident">
            <circle id="Oval" fill="#DE0000" cx="100" cy="100" r="100"></circle>
            <path d="M117.46875,133.40625 L117.46875,151.40625 C117.46875,152.718757 116.906256,153.843745 115.78125,154.78125 C114.843745,155.906256 113.718757,156.46875 112.40625,156.46875 L91.59375,156.46875 C90.2812434,156.46875 89.1562547,155.906256 88.21875,154.78125 C87.0937444,153.843745 86.53125,152.718757 86.53125,151.40625 L86.53125,133.40625 C86.53125,131.718742 87.0937444,130.500004 88.21875,129.75 C89.1562547,128.624994 90.2812434,128.0625 91.59375,128.0625 L112.40625,128.0625 C113.718757,128.0625 114.843745,128.624994 115.78125,129.75 C116.906256,130.500004 117.46875,131.718742 117.46875,133.40625 Z M119.71875,48.46875 L117.46875,110.0625 C117.46875,111.562508 117.000005,112.781245 116.0625,113.71875 C114.937494,114.843756 113.718757,115.40625 112.40625,115.40625 L91.59375,115.40625 C90.2812434,115.40625 89.0625056,114.843756 87.9375,113.71875 C86.9999953,112.781245 86.53125,111.562508 86.53125,110.0625 L84.28125,48.46875 C84.0937491,47.1562434 84.5624944,45.9375056 85.6875,44.8125 C86.4375037,43.8749953 87.5624925,43.40625 89.0625,43.40625 L114.9375,43.40625 C116.437507,43.40625 117.562496,43.8749953 118.3125,44.8125 C119.437506,45.9375056 119.906251,47.1562434 119.71875,48.46875 Z" id="g" fill="#FFFFFF"></path>
        </g>
    </g>
</svg>