
<svg width="200px" height="200px" viewBox="0 0 200 200" version="1.1" xmlns="http://www.w3.org/2000/svg" xmlns:xlink="http://www.w3.org/1999/xlink">
    <!-- Generator: Sketch 44.1 (41455) - http://www.bohemiancoding.com/sketch -->
    <desc>Created with Sketch.</desc>
    <defs></defs>
    <g id="Page-1" stroke="none" stroke-width="1" fill="none" fill-rule="evenodd">
        <g id="paw">
            <circle id="Oval" fill="#D8D8D8" cx="100" cy="100" r="100"></circle>
            <path d="M97.78125,66.96875 C97.78125,69.7812641 97.3125047,72.7812341 96.375,75.96875 C95.2499944,78.7812641 93.5625113,81.3124887 91.3125,83.5625 C88.6874869,85.6250103 85.875015,86.65625 82.875,86.65625 C78.9374803,86.65625 75.1875178,85.0625159 71.625,81.875 C68.4374841,78.874985 66.0000084,75.3125206 64.3125,71.1875 C62.6249916,67.0624794 61.78125,63.0312697 61.78125,59.09375 C61.78125,55.7187331 62.3437444,52.6250141 63.46875,49.8125 C64.4062547,46.812485 66.0937378,44.3750094 68.53125,42.5 C70.5937603,40.4374897 73.4062322,39.40625 76.96875,39.40625 C81.2812716,39.40625 84.937485,40.906235 87.9375,43.90625 C91.3125169,47.0937659 93.8437416,50.7499794 95.53125,54.875 C97.0312575,59.0000206 97.78125,63.0312303 97.78125,66.96875 Z M70.21875,105.78125 C70.21875,109.906271 69.0937613,113.656233 66.84375,117.03125 C64.5937387,120.031265 61.4062706,121.53125 57.28125,121.53125 C53.1562294,121.53125 49.4062669,120.125014 46.03125,117.3125 C42.4687322,114.124984 39.7500094,110.468771 37.875,106.34375 C35.9999906,102.031228 35.0625,98.0000188 35.0625,94.25 C35.0625,89.7499775 36.1874887,86.000015 38.4375,83 C40.6875113,79.8124841 43.8749794,78.21875 48,78.21875 C52.1250206,78.21875 55.9687322,79.718735 59.53125,82.71875 C63.2812687,86.2812678 65.9062425,89.8437322 67.40625,93.40625 C69.2812594,97.3437697 70.21875,101.468728 70.21875,105.78125 Z M102,103.53125 C108.562533,103.53125 115.406214,106.156224 122.53125,111.40625 C130.218788,117.031278 136.312477,123.406214 140.8125,130.53125 C145.875025,137.843787 148.40625,144.593719 148.40625,150.78125 C148.40625,153.031261 147.937505,155.093741 147,156.96875 C145.874994,158.656258 144.562507,159.874996 143.0625,160.625 C141.374992,161.562505 139.593759,162.124999 137.71875,162.3125 C136.593744,162.500001 134.625014,162.59375 131.8125,162.59375 C128.062481,162.59375 123.000032,161.468761 116.625,159.21875 C110.437469,156.781238 105.562518,155.5625 102,155.5625 C98.4374822,155.5625 93.2812838,156.687489 86.53125,158.9375 C79.9687172,161.375012 74.6250206,162.59375 70.5,162.59375 C60.5624503,162.59375 55.59375,158.656289 55.59375,150.78125 C55.59375,146.656229 57.093735,141.59378 60.09375,135.59375 C63.4687669,129.406219 67.2187294,124.250021 71.34375,120.125 C75.8437725,115.249976 80.9062219,111.312515 86.53125,108.3125 C92.3437791,105.124984 97.4999775,103.53125 102,103.53125 Z M121.125,86.65625 C118.124985,86.65625 115.312513,85.6250103 112.6875,83.5625 C110.437489,81.3124887 108.750006,78.7812641 107.625,75.96875 C106.687495,72.7812341 106.21875,69.7812641 106.21875,66.96875 C106.21875,63.0312303 106.968742,59.0000206 108.46875,54.875 C110.156258,50.7499794 112.687483,47.0937659 116.0625,43.90625 C119.062515,40.906235 122.718728,39.40625 127.03125,39.40625 C130.593768,39.40625 133.40624,40.4374897 135.46875,42.5 C137.906262,44.3750094 139.593745,46.812485 140.53125,49.8125 C141.656256,52.6250141 142.21875,55.7187331 142.21875,59.09375 C142.21875,63.0312697 141.375008,67.0624794 139.6875,71.1875 C137.999992,75.3125206 135.562516,78.874985 132.375,81.875 C128.812482,85.0625159 125.06252,86.65625 121.125,86.65625 Z M156,78.21875 C160.125021,78.21875 163.312489,79.8124841 165.5625,83 C167.812511,86.000015 168.9375,89.7499775 168.9375,94.25 C168.9375,98.0000188 168.000009,102.031228 166.125,106.34375 C164.249991,110.468771 161.531268,114.124984 157.96875,117.3125 C154.593733,120.125014 150.843771,121.53125 146.71875,121.53125 C142.593729,121.53125 139.406261,120.031265 137.15625,117.03125 C134.906239,113.656233 133.78125,109.906271 133.78125,105.78125 C133.78125,101.468728 134.718741,97.3437697 136.59375,93.40625 C138.093758,89.8437322 140.718731,86.2812678 144.46875,82.71875 C148.031268,79.718735 151.874979,78.21875 156,78.21875 Z" id="i" fill="#FFFFFF"></path>
        </g>
    </g>
</svg>